HIERARCHY
ROOT Hips
{
  OFFSET -119.083 15.6391 118.737
  CHANNELS 6 Xposition Yposition Zposition Zrotation Xrotation Yrotation
  JOINT ToSpine
  {
    OFFSET -0.0105055 1.38907 -7.13956
    CHANNELS 3 Zrotation Xrotation Yrotation
    JOINT Spine
    {
      OFFSET 0.0105055 10 1
      CHANNELS 3 Zrotation Xrotation Yrotation
      JOINT Spine1
      {
        OFFSET 0 12 1.60637
        CHANNELS 3 Zrotation Xrotation Yrotation
        JOINT Neck
        {
          OFFSET 0 27 2.26658
          CHANNELS 3 Zrotation Xrotation Yrotation
          JOINT Head
          {
            OFFSET 0 9 2.12705
            CHANNELS 3 Zrotation Xrotation Yrotation
            End Site
            {
              OFFSET 0 11 2
            }
          }
        }
        JOINT LeftShoulder
        {
          OFFSET 8 19.6109 2.86452
          CHANNELS 3 Zrotation Xrotation Yrotation
          JOINT LeftArm
          {
            OFFSET 12 1 0.681055
            CHANNELS 3 Zrotation Xrotation Yrotation
            JOINT LeftForeArm
            {
              OFFSET 19 0 -1.52608
              CHANNELS 3 Zrotation Xrotation Yrotation
              JOINT LeftHand
              {
                OFFSET 23 0 0
                CHANNELS 3 Zrotation Xrotation Yrotation
                End Site
                {
                  OFFSET 10 0 0
                }
              }
            }
          }
        }
        JOINT RightShoulder
        {
          OFFSET -8 19.6109 2.86452
          CHANNELS 3 Zrotation Xrotation Yrotation
          JOINT RightArm
          {
            OFFSET -12 1 0.681055
            CHANNELS 3 Zrotation Xrotation Yrotation
            JOINT RightForeArm
            {
              OFFSET -19 0 -1.52608
              CHANNELS 3 Zrotation Xrotation Yrotation
              JOINT RightHand
              {
                OFFSET -23 0 0
                CHANNELS 3 Zrotation Xrotation Yrotation
                End Site
                {
                  OFFSET -10 0 0
                }
              }
            }
          }
        }
      }
    }
  }
  JOINT LeftUpLeg
  {
    OFFSET 9 -7.17245 0
    CHANNELS 3 Zrotation Xrotation Yrotation
    JOINT LeftLeg
    {
      OFFSET 0 -44.1113 0
      CHANNELS 3 Zrotation Xrotation Yrotation
      JOINT LeftFoot
      {
        OFFSET 0 -36.1829 0
        CHANNELS 3 Zrotation Xrotation Yrotation
        JOINT LeftToeBase
        {
          OFFSET 0 -4.84184 13
          CHANNELS 3 Zrotation Xrotation Yrotation
          End Site
          {
            OFFSET 0 1 6
          }
        }
      }
    }
  }
  JOINT RightUpLeg
  {
    OFFSET -9 -7.17245 0
    CHANNELS 3 Zrotation Xrotation Yrotation
    JOINT RightLeg
    {
      OFFSET 0 -44.0551 0
      CHANNELS 3 Zrotation Xrotation Yrotation
      JOINT RightFoot
      {
        OFFSET 0 -36.1469 0
        CHANNELS 3 Zrotation Xrotation Yrotation
        JOINT RightToeBase
        {
          OFFSET 0 -4.92256 13
          CHANNELS 3 Zrotation Xrotation Yrotation
          End Site
          {
            OFFSET 0 1 6
          }
        }
      }
    }
  }
}
MOTION
Frames:	8
Frame Time:	0.0333333
22.5054 31.8394 109.564 81.2416 -2.42022 -60.8568 0 0 0 -13.3931 17.6038 -5.01382 4.84823 -13.0008 -7.45758 15.0917 -45.0767 1.52456 -11.2418 5.05714 2.36887 10.9995 -0.250737 -17.7098 -71.7897 -6.42223 -85.8756 66.1827 5.2286 -87.6965 -14.6313 -1.77602 13.8001 4.57403 1.79445 10.8059 55.9038 -45.8156 79.5441 -29.38 5.18598 80.8792 9.11848 -0.592956 -7.42162 29.185 -50.042 30.3428 179.995 76.5761 145.247 -3.49023 -20.4516 -0.630279 -0.127732 -2.81604 1.43815 -10.3433 -1.81583 -17.9244 -0.00104435 34.2428 8.43008 -23.9952 -28.7164 -6.22188 8.24607 -27.9476 3.46645 
23.1929 31.9203 109.472 80.8593 -1.85916 -60.0553 0 0 0 -12.9029 18.2994 -5.02319 4.72452 -13.2352 -7.43727 14.9202 -44.5647 0.939904 -10.9073 4.58223 1.84142 12.3343 -0.513834 -18.1175 -72.6901 -5.22158 -86.2142 66.7236 5.39686 -87.6831 -13.2132 -1.78568 15.3094 4.59691 1.75451 10.4426 55.6155 -47.9755 80.0871 -27.8376 5.84825 79.0789 8.97809 -0.534344 -6.79939 29.8183 -51.1799 30.1807 179.998 75.1529 145.804 -2.37682 -20.0932 -0.420989 -0.0119543 -4.62727 1.56616 -9.43377 -1.83734 -18.0298 -0.00135972 34.833 7.12956 -23.3817 -30.8701 -6.54326 7.79041 -26.3978 3.96385 
23.9608 32.0987 109.279 80.5432 -1.06797 -59.8601 0 0 0 -12.3755 19.0452 -4.84192 4.82871 -13.8632 -7.18233 14.3481 -43.9747 0.397215 -10.3407 3.64734 1.30186 13.6166 -0.790353 -19.1076 -73.5223 -5.63004 -86.195 67.7357 5.75433 -87.6494 -13.6579 -1.77306 14.736 3.30506 1.50906 9.72898 56.9402 -48.7315 80.8916 -27.6181 6.37143 78.0245 9.01813 -0.523412 -6.62957 31.7961 -52.3482 31.2706 -179.998 73.6239 146.214 -1.48015 -19.9436 -0.260279 0.062565 -4.49889 1.14831 -8.31988 -2.3891 -17.9575 0.000949552 35.3557 5.56635 -24.6762 -31.6905 -7.10304 8.34812 -27.8879 4.33752 
24.6175 32.2181 109.177 80.008 -0.71666 -59.4177 0 0 0 -11.6356 19.6699 -4.88645 4.09236 -13.5902 -7.15419 14.9462 -44.0554 0.0351644 -10.6241 3.46833 0.964243 12.3731 -0.543911 -19.1584 -72.5669 -3.75174 -85.8344 69.9116 5.10381 -88.1366 -14.884 -1.88705 14.3693 2.78421 1.45013 9.74413 57.8468 -50.3834 81.4255 -27.3343 6.7998 77.0984 9.04818 -0.516406 -6.51663 32.8232 -53.0518 31.5817 -179.998 72.435 146.265 -1.09293 -19.9417 -0.192681 0.221832 -4.45378 0.348231 -7.71322 -2.18564 -17.6275 0.00171504 35.6211 5.03778 -24.5521 -33.0679 -7.39282 8.31674 -27.6522 4.69614 
25.1577 32.3717 109.136 79.9495 -0.515229 -59.0108 0 0 0 -11.3748 19.9509 -5.07479 3.58462 -13.6296 -7.28297 16.0865 -43.4273 -0.200586 -11.318 3.15619 0.875694 10.069 -0.0831922 -19.4059 -70.7566 -2.33137 -85.2762 71.6557 4.53017 -88.4998 -14.3039 -1.88594 14.9465 -0.144037 1.10672 9.73918 61.3866 -50.8266 80.7569 -27.6249 6.48879 77.8148 9.26342 -0.563846 -6.95517 33.2941 -54.0895 31.5917 180 71.4853 146.047 -1.69513 -20.3408 -0.304061 -0.0567563 -3.55437 1.37168 -7.94284 -2.4844 -18.053 0.000864517 36.4169 6.15821 -25.0278 -34.0521 -7.77564 8.58002 -28.5596 4.33574 
25.7922 32.5278 108.97 80.5029 0.556852 -59.2063 0 0 0 -10.4727 19.2829 -5.46944 2.5396 -13.4812 -7.33542 17.821 -43.7219 0.348834 -11.8809 2.76903 1.20206 9.0271 0.130056 -19.8137 -69.3716 -2.68384 -85.9174 71.7081 4.32196 -88.573 -13.81 -1.82676 15.0019 0.409131 1.1628 9.63764 60.8638 -52.2001 81.4282 -26.6863 6.97304 76.4216 8.88731 -0.565418 -7.26468 36.1591 -55.6496 33.8214 -179.997 70.5581 145.649 -1.18907 -20.2483 -0.212132 -0.161934 -3.55929 1.87669 -7.64032 -4.12162 -17.5951 -0.00143086 37.3815 6.96874 -24.7817 -35.4837 -8.04113 8.61508 -29.1893 3.17716 
26.3416 32.7439 108.636 79.9923 1.10112 -59.9838 0 0 0 -10.2809 21.1473 -5.16243 2.4885 -14.5582 -7.09027 18.0306 -44.3231 0.553884 -11.3717 2.87326 1.1226 7.46555 0.44881 -19.6466 -66.974 -3.20909 -88.1586 71.3541 4.70069 -88.416 -14.5738 -1.91044 14.8578 0.344137 1.18713 9.97948 61.492 -53.761 82.614 -25.798 7.33907 75.1969 8.8299 -0.547889 -7.08739 38.8484 -55.4924 35.6348 179.996 69.8213 145.153 -1.03117 -20.5574 -0.18698 -0.0145483 -3.63588 1.20344 -6.99839 -4.64947 -15.706 0.000539791 38.1177 7.61605 -25.0995 -36.4953 -8.39852 8.56768 -28.7545 3.812 
26.8537 32.9272 108.48 80.1568 1.8948 -60.7965 0 0 0 -10.211 21.8006 -5.00665 2.66996 -14.8396 -6.91114 18.2592 -45.5317 1.07278 -10.3453 3.29209 1.08717 7.48846 0.431314 -18.9572 -65.4375 -3.75664 -90.6719 70.1748 4.50443 -88.3782 -14.428 -1.91866 15.0711 -0.837539 0.990599 9.29735 63.8533 -54.227 84.716 -24.699 7.54215 74.0721 8.70533 -0.52498 -6.88838 41.7282 -55.8283 38.2873 -179.997 68.923 145.509 -1.35925 -20.9021 -0.251137 -0.00975055 -3.62626 1.18724 -6.79471 -6.05614 -14.6056 0.00254698 39.3248 8.67353 -25.171 -37.2792 -8.60061 8.52337 -29.086 2.81852 
